<?xml version="1.0" encoding="UTF-8" standalone="no"?>
<svg xmlns="http://www.w3.org/2000/svg" viewBox="0 0 200 200">
  <defs>
    <radialGradient id="gold-gradient" cx="50%" cy="50%" r="50%" fx="50%" fy="50%">
      <stop offset="0%" stop-color="#ffd700"/>
      <stop offset="100%" stop-color="#b8860b"/>
    </radialGradient>
  </defs>
  <circle cx="100" cy="100" r="95" fill="url(#gold-gradient)" stroke="#ffd700" stroke-width="5"/>
  <path d="M70,130 L70,120 L80,120 L80,110 L90,110 L90,100 L100,100 L100,90 L110,90 L110,80 L120,80 L120,70 L130,70 L130,80 L120,80 L120,90 L130,90 L130,100 L120,100 L120,110 L110,110 L110,120 L100,120 L100,130 L90,130 L90,140 L80,140 L80,130 Z M110,100 L120,100 L120,90 L110,90 Z" fill="#222" stroke="#ffd700" stroke-width="2"/>
</svg>